<mxfile host="app.diagrams.net" modified="2022-01-07T11:16:52.424Z" agent="5.0 (Windows NT 10.0; Win64; x64) AppleWebKit/537.36 (KHTML, like Gecko) Chrome/96.0.4664.110 Safari/537.36" etag="Y2gqZTmchK2JhUDBdmIV" version="16.1.4" type="github">
  <diagram id="pnOJSnK21s3Eu9gIjYto" name="第 1 页">
    <mxGraphModel dx="1422" dy="786" grid="1" gridSize="10" guides="1" tooltips="1" connect="1" arrows="1" fold="1" page="1" pageScale="1" pageWidth="827" pageHeight="1169" math="0" shadow="0">
      <root>
        <mxCell id="0" />
        <mxCell id="1" parent="0" />
        <mxCell id="kQNk44BCjsisiy3CQrAd-3" value="" style="edgeStyle=orthogonalEdgeStyle;rounded=0;orthogonalLoop=1;jettySize=auto;html=1;" edge="1" parent="1" source="kQNk44BCjsisiy3CQrAd-1" target="kQNk44BCjsisiy3CQrAd-2">
          <mxGeometry relative="1" as="geometry" />
        </mxCell>
        <mxCell id="kQNk44BCjsisiy3CQrAd-1" value="Actor" style="shape=umlActor;verticalLabelPosition=bottom;verticalAlign=top;html=1;outlineConnect=0;" vertex="1" parent="1">
          <mxGeometry x="50" y="130" width="30" height="60" as="geometry" />
        </mxCell>
        <mxCell id="kQNk44BCjsisiy3CQrAd-5" value="" style="edgeStyle=orthogonalEdgeStyle;rounded=0;orthogonalLoop=1;jettySize=auto;html=1;" edge="1" parent="1" source="kQNk44BCjsisiy3CQrAd-2" target="kQNk44BCjsisiy3CQrAd-4">
          <mxGeometry relative="1" as="geometry" />
        </mxCell>
        <mxCell id="kQNk44BCjsisiy3CQrAd-2" value="发送消息" style="rounded=1;whiteSpace=wrap;html=1;verticalAlign=top;" vertex="1" parent="1">
          <mxGeometry x="115" y="130" width="120" height="60" as="geometry" />
        </mxCell>
        <mxCell id="kQNk44BCjsisiy3CQrAd-7" value="" style="edgeStyle=orthogonalEdgeStyle;rounded=0;orthogonalLoop=1;jettySize=auto;html=1;" edge="1" parent="1" source="kQNk44BCjsisiy3CQrAd-4" target="kQNk44BCjsisiy3CQrAd-6">
          <mxGeometry relative="1" as="geometry" />
        </mxCell>
        <mxCell id="kQNk44BCjsisiy3CQrAd-10" value="" style="edgeStyle=orthogonalEdgeStyle;rounded=0;orthogonalLoop=1;jettySize=auto;html=1;" edge="1" parent="1" source="kQNk44BCjsisiy3CQrAd-4" target="kQNk44BCjsisiy3CQrAd-9">
          <mxGeometry relative="1" as="geometry" />
        </mxCell>
        <mxCell id="kQNk44BCjsisiy3CQrAd-4" value="用户给指定好友发送消息（文本/图片）" style="rounded=1;whiteSpace=wrap;html=1;verticalAlign=top;" vertex="1" parent="1">
          <mxGeometry x="115" y="270" width="120" height="60" as="geometry" />
        </mxCell>
        <mxCell id="kQNk44BCjsisiy3CQrAd-6" value="回滚" style="rounded=1;whiteSpace=wrap;html=1;verticalAlign=top;" vertex="1" parent="1">
          <mxGeometry x="315" y="270" width="120" height="60" as="geometry" />
        </mxCell>
        <mxCell id="kQNk44BCjsisiy3CQrAd-8" value="失败" style="text;html=1;align=center;verticalAlign=middle;resizable=0;points=[];autosize=1;strokeColor=none;fillColor=none;" vertex="1" parent="1">
          <mxGeometry x="260" y="280" width="40" height="20" as="geometry" />
        </mxCell>
        <mxCell id="kQNk44BCjsisiy3CQrAd-13" value="" style="edgeStyle=orthogonalEdgeStyle;rounded=0;orthogonalLoop=1;jettySize=auto;html=1;" edge="1" parent="1" source="kQNk44BCjsisiy3CQrAd-9" target="kQNk44BCjsisiy3CQrAd-12">
          <mxGeometry relative="1" as="geometry" />
        </mxCell>
        <mxCell id="kQNk44BCjsisiy3CQrAd-9" value="完成" style="rounded=1;whiteSpace=wrap;html=1;verticalAlign=top;" vertex="1" parent="1">
          <mxGeometry x="115" y="410" width="120" height="60" as="geometry" />
        </mxCell>
        <mxCell id="kQNk44BCjsisiy3CQrAd-11" value="成功" style="text;html=1;align=center;verticalAlign=middle;resizable=0;points=[];autosize=1;strokeColor=none;fillColor=none;" vertex="1" parent="1">
          <mxGeometry x="180" y="350" width="40" height="20" as="geometry" />
        </mxCell>
        <mxCell id="kQNk44BCjsisiy3CQrAd-12" value="添加发送记录" style="whiteSpace=wrap;html=1;verticalAlign=top;rounded=1;dashed=1;" vertex="1" parent="1">
          <mxGeometry x="115" y="550" width="120" height="60" as="geometry" />
        </mxCell>
        <mxCell id="kQNk44BCjsisiy3CQrAd-14" value="" style="endArrow=classic;html=1;rounded=0;exitX=1;exitY=0.5;exitDx=0;exitDy=0;" edge="1" parent="1" source="kQNk44BCjsisiy3CQrAd-6">
          <mxGeometry width="50" height="50" relative="1" as="geometry">
            <mxPoint x="500" y="300" as="sourcePoint" />
            <mxPoint x="240" y="160" as="targetPoint" />
            <Array as="points">
              <mxPoint x="480" y="300" />
              <mxPoint x="480" y="160" />
            </Array>
          </mxGeometry>
        </mxCell>
      </root>
    </mxGraphModel>
  </diagram>
</mxfile>
